<?xml version="1.0" encoding="UTF-8"?>
<svg viewBox="0 0 24.221 16.518" xmlns="http://www.w3.org/2000/svg">
<path d="m3.8413 16.288c-1.1262-0.49169-1.7938-1.2078-2.1402-2.2956-0.0934-0.29344-0.12972-0.74122-0.16595-2.0484-0.0378-1.363-0.0683-1.7235-0.1647-1.946-0.21573-0.49795-0.67253-0.8535-1.0966-0.8535-0.24735 0-0.2931-0.1575-0.26774-0.92178 0.0125-0.37555 0.023-0.71594 0.0234-0.75643 2.6e-4 -0.0405 0.16022-0.11043 0.35513-0.15542 0.45835-0.1058 0.7535-0.33604 0.95132-0.7421 0.14912-0.30609 0.16151-0.43137 0.20106-2.0332 0.0455-1.8427 0.10526-2.1881 0.49271-2.8483 0.29565-0.50378 0.97978-1.097 1.6254-1.4096 0.8591-0.41583 0.88631-0.40832 1.1454 0.31594 0.1178 0.32932 0.21419 0.61605 0.21419 0.63717 0 0.0211-0.14903 0.13496-0.33117 0.25298-0.18215 0.11803-0.41008 0.33383-0.50652 0.47956-0.34946 0.52806-0.40722 0.86949-0.45825 2.7087-0.0424 1.5274-0.0631 1.7476-0.1973 2.0924-0.19735 0.50733-0.49118 0.90374-0.86539 1.1675-0.16737 0.11797-0.30431 0.24896-0.30431 0.29108 0 0.0421 0.13587 0.17839 0.30193 0.30282 0.38272 0.28675 0.69475 0.72017 0.87724 1.2185 0.12491 0.3411 0.14841 0.60443 0.18712 2.0971 0.039 1.5028 0.0617 1.7548 0.18984 2.1068 0.1812 0.4976 0.40722 0.79835 0.80638 1.073 0.17049 0.1173 0.29697 0.24873 0.28106 0.29206-0.0159 0.0433-0.099 0.29386-0.18457 0.55674-0.16618 0.5103-0.245 0.64916-0.36774 0.64783-0.0423-2.6e-4 -0.31316-0.10395-0.60181-0.22998zm15.784 0.16793c-0.0825-0.13342-0.37888-1.0508-0.37888-1.1726 0-0.0655 0.10539-0.18417 0.23421-0.26378 0.34988-0.21624 0.6211-0.55916 0.79444-1.0045 0.14008-0.35984 0.15981-0.56269 0.2049-2.1052 0.029-0.99175 0.0846-1.8214 0.13275-1.9801 0.18683-0.61569 0.59735-1.1835 1.0642-1.4721 0.12782-0.079 0.23238-0.16854 0.23238-0.19899 0-0.0305-0.15213-0.17139-0.33808-0.31319-0.41601-0.31726-0.68635-0.68884-0.89114-1.2249-0.14179-0.37113-0.16109-0.57031-0.20511-2.1167-0.0347-1.2202-0.0779-1.797-0.15131-2.0226-0.14606-0.44873-0.49256-0.92162-0.80675-1.101-0.32559-0.18592-0.33191-0.25734-0.0846-0.95618 0.22986-0.64952 0.26396-0.65601 1.1591-0.22056 1.0644 0.51778 1.6802 1.2558 1.9691 2.3598 0.0837 0.31983 0.12671 0.88145 0.15903 2.0771 0.0441 1.6329 0.045 1.6399 0.23419 1.9627 0.20179 0.34421 0.43696 0.50263 0.93569 0.63028l0.30726 0.0786 0.0194 0.77111c0.0209 0.8314-0.0203 0.96136-0.30425 0.96136-0.20942 0-0.54821 0.16939-0.78872 0.39436-0.31665 0.29619-0.3807 0.65378-0.41866 2.3368-0.0387 1.7145-0.0976 2.044-0.50424 2.8202-0.31514 0.6015-0.89717 1.1336-1.6224 1.483-0.63767 0.30732-0.88868 0.38029-0.95259 0.27689z" fill="#fff" stroke-width=".26458"/>
<path d="m6.7624 13.974c-0.11716-0.10918-0.23729-0.29653-0.2668-0.41623-0.0296-0.11977-0.0411-2.5904-0.0256-5.4904l0.028-5.2727 0.27479-0.23631c0.37578-0.32316 0.93291-0.31999 1.3222 7e-3 0.16238 0.1367 0.55967 0.77185 0.90353 1.4446 0.33754 0.66041 0.93085 1.7957 1.3184 2.5229 0.38763 0.72719 0.93605 1.7739 1.2188 2.326 0.2827 0.55212 0.56502 1.0033 0.62735 1.0025 0.0624-7.7e-4 0.72633-1.1797 1.4755-2.6199 2.2328-4.2921 2.4247-4.6296 2.7184-4.7815 0.39964-0.20665 0.81723-0.17052 1.1292 0.0977l0.2748 0.23629 0.0489 5.0769c0.0269 2.7923 0.0217 5.2723-0.0118 5.5113-0.0749 0.53655-0.35562 0.78985-0.87512 0.78985-0.25562 0-0.46315-0.0754-0.65024-0.23626l-0.27479-0.23627-0.0281-3.4924c-0.0188-2.3477-0.0612-3.4813-0.12919-3.4586-0.0557 0.0186-0.71577 1.2006-1.4669 2.6268-0.75116 1.4262-1.4777 2.6923-1.6146 2.8134-0.16609 0.14707-0.37395 0.22036-0.62501 0.22036-0.49242 0-0.78367-0.32951-1.5305-1.7316-1.4004-2.629-2.0587-3.7889-2.1717-3.8266-0.0958-0.0319-0.12212 0.67512-0.12212 3.2928 0 2.2344-0.0358 3.4122-0.10879 3.5721-0.21244 0.46627-1.053 0.61675-1.4386 0.25754z" fill="#FFF" stroke-width=".26458"/>
</svg>
