<?xml version="1.0" encoding="UTF-8"?>
<svg width="150" height="28" viewBox="0 0 113.93 14.915" style='max-width:28px' xmlns="http://www.w3.org/2000/svg">
<g transform="translate(-558.36 -384.35)" fill="#fff">
<path d="m561.83 399.05c-1.0168-0.44396-1.6197-1.0906-1.9325-2.0728-0.0844-0.26497-0.1172-0.66927-0.14989-1.8496-0.0342-1.2307-0.0618-1.5562-0.14873-1.7571-0.19481-0.44962-0.60727-0.77066-0.99013-0.77066-0.22334 0-0.26466-0.1423-0.24176-0.83231 0.0116-0.33909 0.0208-0.64646 0.0211-0.68302 2.3e-4 -0.0367 0.14461-0.0997 0.32066-0.14032 0.41387-0.0956 0.68037-0.30342 0.859-0.67007 0.1347-0.27638 0.14576-0.3895 0.18153-1.8359 0.0411-1.6638 0.0951-1.9757 0.44491-2.5718 0.26694-0.45489 0.88467-0.99056 1.4677-1.2728 0.77572-0.37547 0.8003-0.36869 1.0342 0.28527 0.10631 0.29735 0.1934 0.55626 0.1934 0.57533 0 0.019-0.13454 0.12183-0.29902 0.22843-0.16441 0.10664-0.37028 0.30143-0.45736 0.43302-0.31554 0.47681-0.36769 0.78511-0.41378 2.4458-0.0383 1.3792-0.057 1.5779-0.17816 1.8894-0.17818 0.45808-0.44349 0.81602-0.78138 1.0542-0.15105 0.10647-0.27478 0.22478-0.27478 0.26282 0 0.0379 0.12266 0.16112 0.27262 0.27343 0.34558 0.25892 0.62733 0.65028 0.7921 1.1002 0.11275 0.308 0.13404 0.54576 0.16897 1.8936 0.0351 1.3569 0.0556 1.5845 0.17142 1.9023 0.16358 0.44929 0.36769 0.72086 0.7281 0.96884 0.15402 0.10598 0.26815 0.22459 0.25379 0.26371-0.0149 0.0391-0.0893 0.26535-0.16666 0.50271-0.15005 0.46077-0.22122 0.58616-0.33205 0.58495-0.0381-2.3e-4 -0.28277-0.0939-0.54341-0.20767z" stroke-width=".26458"/>
<path d="m581.02 397.21c-0.29442-0.12044-0.51202-0.4312-0.50753-0.72469 3e-3 -0.16134 0.3505-1.0223 0.83103-2.0559 2.2898-4.9249 3.3009-7.0698 3.4142-7.2427 0.25554-0.38999 0.93999-0.51077 1.4372-0.25364 0.28461 0.14719 0.3591 0.29043 2.0936 4.0266 0.45407 0.97805 0.99939 2.1491 1.2118 2.6023 1.0437 2.2268 1.2784 2.7584 1.2784 2.8957 0 0.27427-0.24945 0.63534-0.51493 0.74531-0.29686 0.12297-0.80394 0.0598-0.95192-0.11842-0.0529-0.0639-0.30808-0.57615-0.56683-1.1384-0.25873-0.56224-0.52179-1.0548-0.5846-1.0947-0.0628-0.0398-1.2108-0.0731-2.5512-0.0738-2.2155-8.9e-4 -2.4487 0.0126-2.5649 0.15047-0.0703 0.0834-0.3185 0.57486-0.55155 1.0919s-0.51861 1.0147-0.63461 1.106c-0.21986 0.17294-0.54184 0.20518-0.83812 0.0838zm6.4624-3.9971c0-0.20502-1.7726-4.0767-1.854-4.0496-0.11434 0.0381-1.8778 3.9785-1.8214 4.0698 0.0655 0.10582 3.6754 0.0861 3.6754-0.0203z" stroke-width=".26458"/>
<path d="m569.18 396.78c-0.10392-0.0968-0.21043-0.26297-0.23661-0.36914-0.0262-0.10621-0.0364-2.2973-0.0228-4.8692l0.0248-4.6762 0.2437-0.20957c0.33326-0.2866 0.82736-0.28379 1.1726 7e-3 0.14401 0.12123 0.49635 0.68451 0.80131 1.2812 0.29934 0.58569 0.82552 1.5925 1.1693 2.2375 0.34377 0.64493 0.83015 1.5732 1.0809 2.0629 0.25072 0.48965 0.50109 0.88976 0.55637 0.88909 0.0554-6.7e-4 0.64415-1.0462 1.3086-2.3234 1.9802-3.8065 2.1503-4.1058 2.4108-4.2405 0.35442-0.18328 0.72478-0.15123 1.0014 0.0866l0.24371 0.20956 0.0434 4.5025c0.0239 2.4764 0.0192 4.6758-0.0102 4.8877-0.0664 0.47585-0.31539 0.7005-0.7761 0.7005-0.2267 0-0.41076-0.067-0.57668-0.20954l-0.2437-0.20954-0.025-3.0972c-0.0166-2.0821-0.0543-3.0874-0.11461-3.0673-0.0494 0.0164-0.63479 1.0648-1.301 2.3296-0.66617 1.2648-1.3105 2.3876-1.4319 2.4951-0.1473 0.13043-0.33164 0.19542-0.55429 0.19542-0.43671 0-0.69501-0.29222-1.3574-1.5356-1.242-2.3315-1.8258-3.3602-1.926-3.3936-0.085-0.0282-0.10825 0.59874-0.10825 2.9202 0 1.9816-0.0318 3.0261-0.0964 3.168-0.18841 0.41352-0.93391 0.54697-1.2759 0.22841z" stroke-width=".26458"/>
<path d="m599.41 397.03c-0.23751-0.0685-0.43546-0.31816-1.3919-1.7557-1.2292-1.8475-1.3593-2.0135-1.7307-2.208-0.35868-0.18788-1.9206-0.25744-2.0582-0.0917-0.0663 0.0797-0.10753 0.70362-0.12519 1.8875l-0.0262 1.7683-0.23844 0.20495c-0.35237 0.30286-0.92469 0.28718-1.246-0.034-0.22503-0.22502-0.24254-0.29607-0.2984-1.2111-0.0984-1.6112-0.0193-8.1656 0.10112-8.3755 0.20537-0.35806 0.45206-0.38602 3.1368-0.35544 2.4092 0.0274 2.5642 0.0388 3.0239 0.2228 0.64291 0.25722 1.2673 0.82882 1.522 1.3933 0.27949 0.61942 0.29075 2.0315 0.0209 2.6158-0.31817 0.68892-0.98202 1.2253-1.9425 1.5696-0.16276 0.0584-0.16095 0.0669 0.0425 0.19853 0.42036 0.27221 0.82043 0.76648 1.5935 1.9689 0.87441 1.3599 0.95199 1.629 0.57752 2.0035-0.11476 0.11475-0.26458 0.20861-0.333 0.20861-0.0685 0-0.17532 0.0155-0.23757 0.0347-0.0622 0.0191-0.23779-1e-3 -0.39008-0.0451zm-1.6697-5.7767c0.63033-0.31586 0.75681-0.54888 0.75681-1.3943 0-0.79844-0.11924-1.0494-0.64628-1.3598-0.26262-0.15469-0.44142-0.16998-1.9883-0.16998h-1.6997l-0.0233 1.4761c-0.0165 1.0506 6e-3 1.5114 0.0783 1.5985 0.0835 0.10052 0.36984 0.11637 1.608 0.0882 1.3835-0.0315 1.5397-0.0509 1.9145-0.23873z" stroke-width=".26458"/>
<path d="m603.21 396.99-0.26097-0.26097v-4.834c0-3.1447 0.0322-4.894 0.0919-5.0058 0.21672-0.40493 1.02-0.57285 1.4154-0.29586 0.44866 0.31424 0.45685 0.40853 0.45685 5.256 0 4.8475-8e-3 4.9417-0.45685 5.256-0.11493 0.0804-0.38171 0.14559-0.59662 0.14559-0.31066 0-0.44122-0.0524-0.64976-0.26098z" stroke-width=".26458"/>
<path d="m607.5 397.01c-0.12662-0.0995-0.26797-0.32758-0.31426-0.50676-0.107-0.41395-0.12016-8.6487-0.0148-9.1804 0.1451-0.73175 0.83009-1.0184 1.4828-0.62045 0.15753 0.096 0.29449 0.18513 0.30437 0.19796 0.0103 0.0129 0.0396 0.95206 0.0661 2.0872 0.0333 1.4267 0.0791 2.0742 0.14851 2.0972 0.0553 0.0183 0.90786-0.7269 1.8948-1.6561 2.7745-2.612 3.1172-2.9016 3.4343-2.9016 0.19256 0 0.36066 0.088 0.57229 0.29965 0.31876 0.31875 0.36952 0.57669 0.18051 0.9173-0.1092 0.19689-1.201 1.2315-3.1636 2.998-0.521 0.46893-0.94734 0.89863-0.9474 0.95486-9e-5 0.0844 2.2248 2.2112 3.8952 3.7233 0.66868 0.60533 0.73765 1.1581 0.1975 1.583-0.23681 0.18627-0.56342 0.23081-0.84726 0.11552-0.0812-0.0329-1.2628-1.1045-2.626-2.3812-1.61-1.5079-2.5234-2.3041-2.6066-2.2722-0.107 0.041-0.12817 0.39116-0.12817 2.1298v2.0806l-0.25761 0.2576c-0.32488 0.32488-0.9102 0.36018-1.2707 0.0767z" stroke-width=".26458"/>
<path d="m626.36 397c-0.40565-0.16344-0.41208-0.22748-0.45772-4.5634l-0.043-4.0904-3.0722-0.086-0.2077-0.24161c-0.28006-0.32577-0.27851-0.77184 4e-3 -1.054l0.21137-0.21138h8.1103c0.46499 0.39964 0.46064 1.1449 0.0547 1.3974-0.12485 0.0714-0.70229 0.1246-1.6557 0.15267l-1.4639 0.043-0.0431 4.0904c-0.0463 4.3942-0.0417 4.3515-0.49456 4.5579-0.23954 0.10915-0.67865 0.11175-0.94222 5e-3z" stroke-width=".26458"/>
<path d="m633.12 396.81-0.22097-0.26261v-9.1326l0.49899-0.49897h6.0808l0.20951 0.2095c0.30846 0.30846 0.28626 0.73494-0.0531 1.0205l-0.26261 0.22097h-2.2888c-2.0083 0-2.2952 0.0165-2.3406 0.13502-0.0284 0.0742-0.0518 0.66487-0.0518 1.3125 0 0.8583 0.0298 1.2023 0.11025 1.269 0.0702 0.0583 0.89304 0.10088 2.2596 0.11712 2.0182 0.0242 2.1598 0.036 2.3202 0.19662 0.094 0.094 0.19547 0.29415 0.22559 0.44468 0.0461 0.23006 0.0133 0.31503-0.20474 0.53315l-0.25949 0.25948h-2.1233c-1.5376 0-2.1515 0.0282-2.2257 0.10235-0.11575 0.11575-0.14667 2.5978-0.0346 2.7742 0.0477 0.0748 0.69693 0.10949 2.396 0.12801l2.3308 0.0254 0.20586 0.23948c0.26906 0.31296 0.26763 0.68806-5e-3 0.95932l-0.20951 0.2095h-6.1379z" stroke-width=".26458"/>
<path d="m645.78 397.2c-2.4278-0.52329-3.8611-2.6704-3.7037-5.548 0.062-1.135 0.22455-1.7893 0.64228-2.5866 0.83248-1.589 2.5777-2.4948 4.5803-2.3772 1.2541 0.0736 2.5153 0.54983 3.1148 1.176 0.32981 0.34454 0.34883 0.86735 0.0433 1.1933-0.2726 0.29091-0.56181 0.24335-1.2953-0.21297-0.78552-0.48872-1.4225-0.65565-2.2945-0.60124-0.92157 0.0574-1.4958 0.30555-1.9965 0.86253-0.47287 0.52594-0.70712 1.1326-0.83112 2.1524-0.24687 2.0304 0.40756 3.6977 1.6727 4.2614 0.38642 0.17219 0.6036 0.20463 1.386 0.20708l0.92778 3e-3 0.98971-0.50927c0.67927-0.34952 1.0449-0.49176 1.1656-0.45346 0.30537 0.097 0.48279 0.37228 0.48279 0.74932 0 0.46607-0.354 0.8364-1.1983 1.2536-1.0959 0.54147-2.441 0.69845-3.6858 0.43012z" stroke-width=".26458"/>
<path d="m652.99 396.92-0.24261-0.20866v-9.6278l0.24261-0.20868c0.39846-0.34274 1.206-0.22008 1.441 0.21886 0.0529 0.0989 0.089 0.89848 0.089 1.9706 0 1.288 0.0297 1.8339 0.10373 1.908 0.14808 0.1481 5.0053 0.1481 5.1534 0 0.0741-0.0741 0.10372-0.61999 0.10372-1.908 0-1.0721 0.0361-1.8717 0.089-1.9706 0.11309-0.2113 0.52726-0.42753 0.8189-0.42753 0.32533 0 0.68551 0.2118 0.80458 0.47315 0.0759 0.16658 0.10334 1.4309 0.10334 4.7665 0 4.8526-5e-3 4.9075-0.42754 5.1339-0.30604 0.16379-0.84022 0.10587-1.1024-0.11954l-0.2426-0.20853-0.0248-1.9748c-0.0215-1.7178-0.0434-1.9888-0.16784-2.0828-0.1065-0.0804-0.75675-0.10815-2.5415-0.10815-2.0651 0-2.4173 0.0189-2.5343 0.13587-0.11524 0.11523-0.13587 0.42415-0.13587 2.0386v1.9028l-0.25276 0.25274c-0.33673 0.33674-0.91382 0.35664-1.2772 0.044z" stroke-width=".26458"/>
<path d="m668.17 399.21c-0.0741-0.11983-0.34027-0.94369-0.34027-1.053 0-0.0588 0.0946-0.16539 0.21034-0.23689 0.31422-0.1942 0.5578-0.50217 0.71347-0.90211 0.1258-0.32317 0.14352-0.50534 0.18402-1.8906 0.026-0.89068 0.0759-1.6358 0.11922-1.7783 0.16779-0.55293 0.53647-1.0629 0.95578-1.3221 0.11479-0.071 0.2087-0.15136 0.2087-0.17871 0-0.0274-0.13663-0.15392-0.30363-0.28126-0.37361-0.28492-0.6164-0.61863-0.80031-1.1-0.12734-0.33331-0.14467-0.51218-0.18421-1.901-0.0311-1.0959-0.0699-1.6138-0.13588-1.8164-0.13117-0.403-0.44236-0.82769-0.72453-0.98881-0.2924-0.16697-0.29808-0.23111-0.0759-0.85873 0.20643-0.58331 0.23705-0.58914 1.0409-0.19807 0.95589 0.465 1.509 1.1278 1.7684 2.1193 0.0752 0.28723 0.11379 0.79161 0.14282 1.8654 0.0396 1.4665 0.0405 1.4727 0.21032 1.7626 0.18123 0.30913 0.39243 0.4514 0.84033 0.56603l0.27594 0.0706 0.0174 0.69251c0.0188 0.74666-0.0183 0.86337-0.27324 0.86337-0.18807 0-0.49233 0.15213-0.70833 0.35417-0.28438 0.26601-0.3419 0.58716-0.37599 2.0987-0.0348 1.5398-0.0877 1.8357-0.45285 2.5328-0.28302 0.5402-0.80573 1.018-1.457 1.3319-0.57267 0.276-0.79811 0.34152-0.8555 0.24866z" stroke-width=".26458"/>
</g>
</svg>
