<svg width="280" height="307" viewBox="0 0 280 307" fill="none" xmlns="http://www.w3.org/2000/svg">
<g clip-path="url(#clip0_216_524)">
<path d="M28.655 305.88C19.7792 305.65 17.7892 305.415 14.138 304.171C5.95496 301.383 -0.802814 295.311 -4.28432 287.619C-6.28863 283.19 -6.45938 281.881 -6.81509 268.219C-7.19594 253.592 -6.94393 185.746 -6.46379 173.645C-4.47758 123.583 2.31962 91.6253 16.2929 66.6526C29.3259 43.3602 47.9487 23.3969 71.066 7.9368C76.9339 4.01253 80.4092 2.07096 83.7781 0.834904C85.8864 0.0613693 86.4504 -0.0075875 90.6014 0.000576465C99.482 0.0180441 105.206 2.41152 110.911 8.49218C116.346 14.2863 119.355 23.0688 118.416 30.4009C117.365 38.614 113.608 44.1779 104.333 51.2569C84.9399 66.058 72.9964 83.867 65.8238 108.677C61.66 123.08 58.3098 145.891 58.073 161.452L57.9898 166.923L63.7631 166.996C78.8416 167.188 97.7807 167.734 99.1834 168.018C103.396 168.87 108.507 171.726 112.431 175.421C116.299 179.063 118.721 182.762 121.301 188.964L122.146 190.996L122.046 236.017L121.945 281.038L121.256 283.215C119.587 288.485 116.763 293.113 112.759 297.143C109.642 300.279 106.233 302.508 102.677 303.736C97.9031 305.383 96.1439 305.601 85.1401 305.901C73.4448 306.22 41.2701 306.208 28.6549 305.88L28.655 305.88ZM194.21 305.896C184.954 305.759 176.5 305.494 175.24 305.301C168.785 304.315 160.929 299.396 156.604 293.633C154.793 291.219 152.628 286.771 151.766 283.695C150.663 279.759 150.51 269.302 150.84 220.321C151.215 164.635 151.501 154.283 153.044 140.348C156.211 111.748 162.102 89.0232 170.793 71.8796C178.491 56.6942 188.479 43.0354 201.212 30.2797C210.415 21.0614 218.49 14.4542 229.368 7.24201C239.033 0.834493 241.03 0.0669357 248.042 0.0654114C251.818 0.0645898 253.206 0.192384 255.22 0.726478C265.106 3.34825 272.385 10.9352 274.934 21.2743C275.675 24.2814 275.675 31.4277 274.934 34.2061C273.258 40.4845 270.419 44.1197 261.797 51.025C253.963 57.2993 244.304 66.9685 239.405 73.4428C237.148 76.424 234.072 81.5905 231.559 86.6174C223.348 103.047 218.172 123.772 215.917 149.259C215.367 155.474 214.682 166.749 214.846 166.904C214.91 166.966 224.366 167.12 235.859 167.247L256.755 167.477L260.981 169.612C265.755 172.023 268.474 173.96 271.236 176.917C274.975 180.922 277.319 185.202 278.67 190.49C279.371 193.235 279.463 194.413 279.722 203.971C280.093 217.601 280.093 253.492 279.722 268.219C279.45 279.058 279.381 279.984 278.637 282.913C277.052 289.148 273.308 294.943 268.194 299.076C263.709 302.701 258.417 304.864 252.255 305.591C248.625 306.019 214.563 306.198 194.21 305.896Z" fill="#2D231C"/>
</g>
<defs>
<clipPath id="clip0_216_524">
<rect width="287" height="306.133" fill="white" transform="translate(-7)"/>
</clipPath>
</defs>
</svg>
