<svg width="521" height="556" viewBox="0 0 521 556" fill="none" xmlns="http://www.w3.org/2000/svg">
<g clip-path="url(#clip0_245_2)">
<path d="M456.274 555.54C472.387 555.121 475.999 554.696 482.627 552.436C497.482 547.372 509.75 536.344 516.07 522.374C519.709 514.331 520.019 511.953 520.664 487.14C521.356 460.574 520.898 337.353 520.027 315.374C516.421 224.451 504.082 166.41 478.716 121.055C455.056 78.7509 421.25 42.4935 379.284 14.4148C368.632 7.28756 362.323 3.76128 356.208 1.51635C352.38 0.111459 351.357 -0.0137804 343.821 0.00104698C327.7 0.0327717 317.308 4.37981 306.953 15.4235C297.086 25.9468 291.624 41.8976 293.328 55.2143C295.237 70.1309 302.057 80.236 318.894 93.093C354.099 119.975 375.78 152.319 388.801 197.38C396.359 223.538 402.441 264.968 402.871 293.229L403.022 303.166L392.541 303.299C365.169 303.647 330.788 304.639 328.242 305.154C320.594 306.702 311.316 311.89 304.193 318.601C297.171 325.215 292.775 331.932 288.091 343.197L286.557 346.888L286.739 428.655L286.921 510.421L288.173 514.375C291.203 523.947 296.33 532.353 303.599 539.671C309.257 545.367 315.444 549.415 321.9 551.645C330.566 554.638 333.76 555.033 353.735 555.578C374.966 556.157 433.374 556.136 456.274 555.54L456.274 555.54ZM155.738 555.569C172.54 555.32 187.886 554.838 190.174 554.488C201.891 552.698 216.154 543.764 224.004 533.296C227.292 528.913 231.223 520.834 232.788 515.248C234.79 508.098 235.067 489.106 234.468 400.147C233.787 299.011 233.269 280.209 230.468 254.901C224.718 202.957 214.024 161.684 198.247 130.548C184.273 102.968 166.141 78.1609 143.026 54.994C126.32 38.2517 111.662 26.2518 91.9135 13.153C74.3689 1.51561 70.7432 0.121569 58.014 0.1188C51.159 0.117308 48.6402 0.349407 44.9841 1.31943C27.0375 6.08109 13.8236 19.8605 9.19657 38.6385C7.85081 44.1 7.85114 57.0791 9.19715 62.1252C12.2388 73.5281 17.3932 80.1303 33.0448 92.6717C47.2664 104.067 64.7992 121.628 73.6942 133.387C77.7901 138.801 83.3751 148.185 87.936 157.315C102.843 187.155 112.237 224.796 116.331 271.084C117.33 282.373 118.573 302.85 118.277 303.132C118.16 303.243 100.994 303.523 80.1306 303.753L42.1966 304.173L34.5261 308.049C25.8586 312.429 20.923 315.947 15.9102 321.318C9.12182 328.591 4.86615 336.365 2.41469 345.969C1.14238 350.953 0.975448 353.093 0.504093 370.453C-0.167996 395.207 -0.167996 460.393 0.504093 487.14C0.998733 506.826 1.12289 508.508 2.47463 513.828C5.35167 525.152 12.1485 535.676 21.4321 543.183C29.574 549.766 39.1806 553.695 50.366 555.015C56.9552 555.793 118.791 556.118 155.738 555.569V555.569Z" fill="#2D231C"/>
</g>
<defs>
<clipPath id="clip0_245_2">
<rect width="521" height="556" fill="white" transform="matrix(-1 0 0 1 521 0)"/>
</clipPath>
</defs>
</svg>
