<svg width="53" height="53" viewBox="0 0 53 53" fill="none" xmlns="http://www.w3.org/2000/svg">
<path d="M12.8708 15.1133H40.4652C40.9571 15.1133 41.404 15.3158 41.7277 15.6411C42.0516 15.9669 42.2528 16.4172 42.2528 16.9114V35.9841C42.2528 36.3568 42.1384 36.7041 41.9431 36.9921C41.9073 37.0852 41.8515 37.1719 41.7751 37.2457C41.7241 37.2939 41.6681 37.3334 41.6087 37.3633C41.298 37.6238 40.8987 37.7825 40.4652 37.7825H12.8708C12.3795 37.7825 11.932 37.5801 11.6078 37.2543C11.2844 36.9288 11.083 36.4793 11.083 35.9841V16.9114C11.083 16.4162 11.2839 15.9664 11.6076 15.6411C11.9313 15.3153 12.3785 15.1133 12.8708 15.1133ZM12.4543 35.2277L22.1249 25.4769L12.4543 17.5466V35.2277ZM23.1901 26.3502L13.2199 36.403H40.0322L30.5042 26.3517L27.3631 29.0435C27.1167 29.2552 26.7479 29.2672 26.4872 29.0545L23.1901 26.3502ZM31.547 25.4582L40.8815 35.3055V17.4599L31.547 25.4582ZM13.3322 16.4925L26.9085 27.6258L39.9018 16.4925H13.3322Z" fill="#FFE9C9"/>
</svg>
