<svg width="53" height="53" viewBox="0 0 53 53" fill="none" xmlns="http://www.w3.org/2000/svg">
<path fill-rule="evenodd" clip-rule="evenodd" d="M26.4708 14C19.0325 14 13 20.0442 13 27.5006C13 33.4644 16.8598 38.5248 22.2132 40.3108C22.8873 40.4344 23.1329 40.0175 23.1329 39.6594C23.1329 39.3387 23.1212 38.49 23.1142 37.3637C19.3668 38.1792 18.5762 35.5537 18.5762 35.5537C17.9634 33.994 17.0801 33.5788 17.0801 33.5788C15.8569 32.7417 17.1727 32.7583 17.1727 32.7583C18.5249 32.8537 19.2361 34.1498 19.2361 34.1498C20.4378 36.2126 22.3896 35.6167 23.1571 35.2711C23.2795 34.3993 23.6277 33.8042 24.0123 33.4669C21.0209 33.1254 17.8757 31.9677 17.8757 26.7945C17.8757 25.3201 18.4008 24.1159 19.2626 23.172C19.1236 22.8305 18.6613 21.458 19.3951 19.5991C19.3951 19.5991 20.5256 19.2362 23.0994 20.9824C24.1737 20.6832 25.3266 20.534 26.472 20.5282C27.6167 20.5329 28.7687 20.6833 29.8447 20.9824C32.4168 19.2362 33.5457 19.5991 33.5457 19.5991C34.2809 21.458 33.8186 22.8305 33.6805 23.172C34.5439 24.1159 35.065 25.3201 35.065 26.7945C35.065 31.9809 31.9148 33.1221 28.9143 33.4561C29.3973 33.8729 29.8281 34.6968 29.8281 35.9565C29.8281 37.7607 29.8117 39.2168 29.8117 39.6594C29.8117 40.0208 30.0549 40.441 30.738 40.3092C36.0873 38.5199 39.9438 33.4636 39.9438 27.5006C39.9438 20.0442 33.9114 14 26.4705 14" fill="#FFE9C9"/>
</svg>
