<svg width="58" height="58" viewBox="0 0 58 58" fill="none" xmlns="http://www.w3.org/2000/svg">
<circle cx="29" cy="29" r="29" fill="#FF9800"/>
<path d="M17.6729 19.227C19.7926 16.921 23.3902 16.7695 25.6962 18.8892L31.0905 23.8476L33.4458 21.2853L28.0515 16.3269C24.3294 12.9056 18.5319 13.1497 15.1106 16.8718C11.6893 20.5939 11.9334 26.3914 15.6555 29.8127L21.0498 34.7711L23.405 32.2088L18.0107 27.2504C15.7046 25.1307 15.5532 21.5331 17.6729 19.227ZM21.9624 25.658L32.7511 35.5748L35.2303 32.8777L24.4416 22.9608L21.9624 25.658ZM41.5373 28.723L36.1429 23.7645L33.7877 26.3268L39.182 31.2853C41.4881 33.405 41.6396 37.0025 39.5198 39.3086C37.4001 41.6147 33.8025 41.7662 31.4965 39.6464L26.1022 34.688L23.7469 37.2503L29.1412 42.2087C32.8633 45.63 38.6608 45.3859 42.0821 41.6639C45.5034 37.9418 45.2593 32.1443 41.5373 28.723Z" fill="white"/>
</svg>
