<svg width="53" height="53" viewBox="0 0 53 53" fill="none" xmlns="http://www.w3.org/2000/svg">
<path d="M19 35V24.525H22.2V35H19ZM22.3 21.625C22.325 22.525 21.65 23.25 20.575 23.25C19.575 23.25 18.925 22.525 18.925 21.625C18.925 20.7 19.6 20 20.625 20C21.65 20 22.3 20.7 22.3 21.625ZM30.7 35V29.2C30.7 27.85 30.25 26.925 29.075 26.925C28.2 26.925 27.675 27.55 27.425 28.15C27.35 28.375 27.325 28.675 27.325 28.975V35H24.125V27.875C24.125 26.575 24.075 25.475 24.05 24.525H26.825L26.975 26H27.025C27.45 25.3 28.5 24.3 30.225 24.3C32.325 24.3 33.925 25.725 33.925 28.825V35H30.7ZM39 17.2C39 16 38 15 36.8 15H16.2C15 15 14 16 14 17.2V37.8C14 39 15 40 16.2 40H36.8C38 40 39 39 39 37.8V17.2Z" fill="#FFE9C9"/>
</svg>
