<svg width="729" height="1086" viewBox="0 0 729 1086" fill="none" xmlns="http://www.w3.org/2000/svg">
<path d="M6.5 0H728.5V1086H140L120 991.5L127.5 890.5L94 780L109.5 633L132.5 484.5L89 376L74.5 288L81 188L28.5 110L6.5 0Z" fill="url(#paint0_linear_1335_9)"/>
<path d="M3.5 0H39.5L29.5 34.5V63L45.5 95L56.5 131.5L77 162.5L91.5 222.5V280L83.5 331.5L102 374.5L109.5 417.5L140 479L132.5 509L140 552.5L122.5 590.5L109.5 675L98.5 752.5L122.5 830L140 894L128 987L150 1042.5L159.5 1086H132.5L122.5 1042.5L109.5 1002.5V917.5L115.5 862.5L83.5 787.5V729L98.5 667V590.5L115.5 552.5V500.5L128 479L98.5 408.5L73.5 330.5L68.5 274.5L77 222.5L63.5 166L37.5 131.5L18 104L6 83.5L0.5 53L3.5 0Z" fill="white"/>
<defs>
<linearGradient id="paint0_linear_1335_9" x1="-73.5" y1="512" x2="728.5" y2="512" gradientUnits="userSpaceOnUse">
<stop stop-color="#EB7400"/>
<stop offset="1" stop-color="#D64D00"/>
</linearGradient>
</defs>
</svg>
