<svg preserveAspectRatio="none" xmlns="http://www.w3.org/2000/svg" width="820" height="800" fill="none"><path fill="url(#a)" d="M6.5 0h722v1086H140l-20-94.5 7.5-101L94 780l15.5-147 23-148.5L89 376l-14.5-88-35-111.5L6.5 0Z"/><path fill="#fff" d="M3.5 0h36l-10 34.5V63l28 46.5v30l-7.5 38 6.5 47.5L77 274.5l6.5 57 18.5 43 7.5 43L140 479l-7.5 30 7.5 43.5-17.5 38-13 84.5-11 77.5 24 77.5 17.5 64-12 93 22 55.5 9.5 43.5h-27l-10-43.5-13-40v-85l6-55-32-75V729l15-62v-76.5l17-38v-52L128 479l-29.5-70.5-25-78-5-56-31-55-26.5-42 7-46V104L6 83.5.5 53l3-53Z"/><defs><linearGradient id="a" x1="-73.5" x2="728.5" y1="512" y2="512" gradientUnits="userSpaceOnUse"><stop stop-color="#EB7400"/><stop offset="1" stop-color="#D64D00"/></linearGradient></defs></svg>