<svg preserveAspectRatio="none" width="820" height="800" viewBox="0 0 820 1086" fill="none" xmlns="http://www.w3.org/2000/svg">
<path d="M98 0H820V1086H18L39 611.5L93 512L108.5 449L131 277V176.5L98 0Z" fill="url(#paint0_linear_1317_19)"/>
<path d="M95 0H131L121 34.5V63L149 109.5V139.5L141.5 177.5L148 225L137.5 274.5L128.5 328.5L122 350L118 395.5V452L105.5 479L99.5 499L94 522L76 546.5L52 661.5L51 741.5L45 781V862.5L38.5 894L51 920V974L43.5 1012L25.5 1042.5L26.5 1070L27 1086H11L9 1067L14 1034L9 1023V917.5L3 894L0.5 862.5L11.5 830L0.5 787.5L11.5 741.5L28 689.5V624.5L48.5 571.5L68.5 535.5V521L81 497L99.5 475.5L106.5 445.5V394.5L121 331.5L129 274.5V219.5L102.5 177.5L109.5 131.5V104L97.5 83.5L92 53L95 0Z" fill="white"/>
<defs>
<linearGradient id="paint0_linear_1317_19" x1="18" y1="512" x2="820" y2="512" gradientUnits="userSpaceOnUse">
<stop stop-color="#EB7400"/>
<stop offset="1" stop-color="#D64D00"/>
</linearGradient>
</defs>
</svg>
