<?xml version="1.0" encoding="UTF-8" standalone="no"?>
<svg
   xmlns:svg="http://www.w3.org/2000/svg"
   xmlns="http://www.w3.org/2000/svg"
   viewBox="0 0 160.86667 109.27289">
  <g
     transform="translate(-28.707289,-122.16713)">
    <g
       transform="matrix(0.26458333,0,0,0.26458333,28.045831,111.58377)">
      <g
         transform="translate(2.5000001,40.000001)">
        <path fill="#b1b4c4" d="m 608,152.707 -13.023,8.391 13.023,5.034 z"/>
        <path style="opacity:0.4;fill:#d6d8e5" d="M 160.254,407.995 8.666,320.438 C -4.175,313.02 -2.57,300.069 12.314,291.508 L 378.442,80.144 c 14.835,-8.512 37.258,-9.485 50.1,-2.079 l 151.587,87.556 c 12.841,7.406 11.224,20.357 -3.648,28.918 L 210.365,405.915 c -14.847,8.561 -37.27,9.498 -50.111,2.08 z"/>
        <path fill="#b1b4c4" d="M 179.455,396.465 27.867,308.909 C 15.026,301.503 16.643,288.552 31.515,279.991 L 397.63,68.603 c 14.835,-8.512 37.258,-9.497 50.099,-2.08 l 151.588,87.557 c 12.841,7.418 11.236,20.369 -3.648,28.93 L 229.554,394.398 c -14.835,8.561 -37.258,9.485 -50.099,2.067 z" />
        <path fill="#b1b4c4" d="m 19.197,282.241 16.367,6.177 -16.367,7.783 z"/>
        <path fill="#616e84" d="M 179.455,384.659 27.867,297.102 c -12.841,-7.418 -11.224,-20.369 3.648,-28.93 L 397.63,56.784 c 14.835,-8.512 37.258,-9.485 50.099,-2.08 l 151.588,87.557 c 12.841,7.406 11.236,20.357 -3.648,28.918 l -366.116,211.4 c -14.835,8.561 -37.258,9.497 -50.099,2.08 z" />
        <path fill="#757b89" d="m 46.164,315.053 c 0.78,-0.45 0.783,-1.904 0.007,-3.248 -0.776,-1.343 -2.036,-2.068 -2.816,-1.618 -0.78,0.45 -0.782,1.904 -0.006,3.248 0.775,1.343 2.036,2.068 2.815,1.618 z m 7.298,4.226 c 0.779,-0.45 0.782,-1.904 0.006,-3.248 -0.775,-1.343 -2.036,-2.068 -2.815,-1.618 -0.78,0.45 -0.783,1.904 -0.007,3.248 0.776,1.343 2.036,2.068 2.816,1.618 z m 7.291,4.203 c 0.78,-0.45 0.782,-1.904 0.007,-3.248 -0.776,-1.343 -2.036,-2.068 -2.816,-1.618 -0.78,0.45 -0.782,1.904 -0.007,3.248 0.776,1.343 2.037,2.068 2.816,1.618 z m 7.297,4.226 c 0.78,-0.45 0.783,-1.904 0.007,-3.248 -0.776,-1.343 -2.036,-2.068 -2.816,-1.618 -0.779,0.45 -0.782,1.904 -0.006,3.248 0.775,1.344 2.036,2.068 2.815,1.618 z m 62.658,36.159 c 0.78,-0.45 0.783,-1.904 0.007,-3.247 -0.776,-1.344 -2.036,-2.068 -2.816,-1.618 -0.779,0.45 -0.782,1.904 -0.006,3.247 0.775,1.344 2.036,2.068 2.815,1.618 z m 7.298,4.226 c 0.779,-0.45 0.782,-1.904 0.007,-3.248 -0.776,-1.343 -2.037,-2.068 -2.816,-1.618 -0.779,0.45 -0.782,1.904 -0.007,3.248 0.776,1.343 2.037,2.068 2.816,1.618 z m 7.291,4.203 c 0.779,-0.45 0.782,-1.904 0.007,-3.248 -0.776,-1.343 -2.036,-2.068 -2.816,-1.618 -0.779,0.45 -0.782,1.904 -0.006,3.248 0.775,1.343 2.036,2.068 2.815,1.618 z m 7.297,4.226 c 0.78,-0.45 0.783,-1.904 0.007,-3.248 -0.776,-1.343 -2.036,-2.068 -2.815,-1.618 -0.78,0.45 -0.783,1.904 -0.007,3.248 0.776,1.344 2.036,2.068 2.815,1.618 z m -44.592,-24.321 -20.04,-11.577 a 5.483,5.483 0 0 1 -2.298,-4.39 c 0,-1.691 1.021,-2.432 2.298,-1.739 l 20.04,11.577 a 5.482,5.482 0 0 1 2.298,4.39 c 0,1.69 -1.021,2.468 -2.298,1.739 z M 562.12,199.318 543.479,210.08 c -1.216,0.681 -2.14,0 -2.14,-1.617 a 5.115,5.115 0 0 1 2.14,-4.086 l 18.641,-10.763 c 1.216,-0.68 2.128,0 2.128,1.618 a 5.131,5.131 0 0 1 -0.578,2.296 5.138,5.138 0 0 1 -1.55,1.79 z m -28.552,16.527 -18.641,10.762 c -1.216,0.681 -2.14,0 -2.14,-1.617 a 5.106,5.106 0 0 1 2.14,-4.074 l 18.641,-10.762 c 1.216,-0.681 2.128,0 2.128,1.617 a 5.098,5.098 0 0 1 -2.128,4.074 z"/>
        <path fill="#20232d" d="M 179.455,382.506 27.867,294.95 C 15.026,287.532 16.643,274.593 31.515,266.032 L 397.63,54.608 c 14.835,-8.513 37.258,-9.498 50.099,-2.08 l 151.588,87.557 c 12.841,7.418 11.236,20.369 -3.648,28.93 L 229.554,380.439 c -14.835,8.585 -37.258,9.485 -50.099,2.067 z" />
        <path fill="#ffffff" d="m 583.06,143.574 -59.183,-34.172 -0.146,0.085 c -6.992,4.038 -18.326,4.038 -25.318,0 -6.992,-4.037 -6.992,-10.58 0,-14.592 l 0.146,-0.158 -59.183,-34.172 c -8.986,-5.192 -23.566,-5.192 -32.552,0 L 50.181,266.53 c -8.987,5.192 -8.987,13.607 0,18.788 l 143.671,82.959 c 8.998,5.193 23.566,5.193 32.553,0 L 583.06,162.362 c 8.986,-5.181 8.986,-13.596 0,-18.788 z" />
        <path fill="#ffffff" d="M 583.06,162.362 226.417,368.351 c -8.123,4.682 -20.831,5.132 -29.829,1.337 a 26.849,26.849 0 0 1 -2.712,-1.337 L 50.193,285.318 a 15.174,15.174 0 0 1 -5.047,-4.378 c -3.392,-4.803 -1.714,-10.506 5.047,-14.41 L 406.824,60.614 c 8.986,-5.18 23.554,-5.18 32.552,0 l 59.183,34.184 a 0.42,0.42 0 0 0 -0.146,0.073 c -6.992,4.037 -6.992,10.579 0,14.593 6.992,4.013 18.338,4.037 25.318,0 l 0.133,-0.086 59.196,34.172 c 8.986,5.217 8.986,13.62 0,18.812 z" />
        <path fill="#2b303f" d="m 507.181,108.345 c 3.754,0 6.797,-1.759 6.797,-3.928 0,-2.17 -3.043,-3.928 -6.797,-3.928 -3.754,0 -6.798,1.758 -6.798,3.928 0,2.169 3.044,3.928 6.798,3.928 z"/>
        <path fill="#ffffff" d="m 505.174,105.585 a 1.22,1.22 0 0 1 -0.855,-1.162 1.216,1.216 0 0 1 0.855,-1.161 4.431,4.431 0 0 1 4.025,0 1.217,1.217 0 0 1 0,2.323 4.424,4.424 0 0 1 -4.025,0 z" />
        <path fill="#E9EAF2" d="m 535.842,130.246 -4.292,2.468 -2.566,-1.483 4.292,-2.481 z m 5.156,0.985 -6.007,3.465 -2.578,-1.483 6.007,-3.466 z m 6.007,0.498 -8.585,4.949 -2.578,-1.484 8.585,-4.949 z m 6.871,0 -12.027,6.931 -2.566,-1.483 12.015,-6.932 z m 7.15,8.755 -8.014,4.621 -4.001,-2.31 8.002,-4.621 z m 5.338,3.077 -8.014,4.633 -4,-2.31 8.013,-4.634 z m 5.338,3.09 -8.013,4.621 -4.001,-2.311 8.013,-4.621 z M 398.616,79.488 544.087,163.481 528.899,172.31 383.416,88.316 Z m -155.248,90.219 31.555,18.217 -56.374,32.773 -31.568,-18.217 z m 64.217,6.603 31.568,18.216 -82.701,48.059 -31.555,-18.217 z m 61.275,8.294 31.568,18.229 -106.061,61.642 -31.567,-18.229 z m 58.405,9.984 31.567,18.217 -126.562,73.56 -31.567,-18.229 z m -260.834,19.835 145.483,83.993 -15.2,8.829 -145.471,-83.994 z m -26.959,15.662 145.483,83.993 -15.2,8.841 -145.483,-83.993 z m -26.959,15.663 145.483,84.005 -15.2,8.829 -145.483,-83.994 z m -26.959,15.675 145.483,83.993 -15.2,8.829 -145.483,-83.994 z m 259.144,-150.611 145.483,84.006 -15.212,8.829 -145.471,-83.994 z m 26.959,-15.662 145.483,83.993 -15.212,8.841 -145.471,-83.993 z"/>

        <g class="code-anim bouncy-anim">
          <path fill="#FF9800" d="m 175.421,179.394 -66.058,-38.143 c -1.787,-1.031 -3.419,-1.198 -4.661,-0.641 -0.172,0.078 -0.337,0.17 -0.493,0.276 l -6.903,3.822 5.02,7.044 v 49.874 c 0,4.482 3.15,9.938 7.043,12.166 l 25.881,14.939 3.15,8.125 -3.317,14.388 7.306,-4.059 7.158,-10.201 22.41,12.948 0.788,6.717 7.235,-4.034 c 1.505,-0.641 2.465,-2.274 2.465,-4.745 v -56.297 c 0.02,-4.482 -3.131,-9.938 -7.024,-12.179 z"/>
          <path fill="#FFBC59" d="m 168.122,183.455 -66.065,-38.144 c -3.88,-2.241 -7.043,-0.422 -7.043,4.06 v 56.348 c 0,4.482 3.15,9.937 7.043,12.166 l 25.881,14.938 7.145,18.422 7.152,-10.181 25.881,14.945 c 3.886,2.241 7.043,0.423 7.043,-4.06 v -56.315 c -0.006,-4.483 -3.15,-9.938 -7.037,-12.179 z"/>
          <path fill="#ffffff" d="m 151.243,223.25 c -1.343,-2.21 -1.16,-2.451 4.194,-5.514 2.436,-1.394 4.147,-2.74 4.147,-3.263 0,-0.489 -2.162,-4.624 -4.803,-9.188 -4.378,-7.566 -4.718,-8.361 -3.845,-9 0.527,-0.385 1.247,-0.58 1.6,-0.435 0.924,0.382 12.271,20.301 12.308,21.605 0.023,0.81 -1.409,1.928 -5.539,4.321 -3.063,1.776 -5.887,3.235 -6.274,3.242 -0.388,0.007 -1.192,-0.788 -1.788,-1.768 z m -23.858,-5.625 c -0.672,-0.715 -1.221,-1.599 -1.221,-1.964 0,-1.028 16.096,-32.964 16.614,-32.964 0.755,0 2.883,2.517 2.856,3.378 -0.039,1.233 -15.771,32.526 -16.439,32.698 -0.324,0.084 -1.139,-0.433 -1.81,-1.148 z m -14.482,-22.332 c -3.429,-5.94 -6.234,-11.058 -6.234,-11.374 0,-0.557 11.341,-7.349 12.271,-7.349 0.567,0 2.768,3.019 2.768,3.797 0,0.309 -2.019,1.726 -4.486,3.149 -2.467,1.423 -4.623,2.945 -4.791,3.383 -0.168,0.437 1.877,4.564 4.544,9.17 3.99,6.891 4.728,8.521 4.166,9.199 -0.376,0.453 -0.981,0.824 -1.344,0.824 -0.363,0 -3.466,-4.86 -6.894,-10.799 z"/>
        </g>

        <g class="rocket-anim bouncy-anim">
          <path fill="#FF9800" d="M 418.185,39.098 352.127,0.954 c -1.787,-1.03 -3.419,-1.197 -4.662,-0.64 -0.171,0.078 -0.336,0.17 -0.493,0.275 l -6.902,3.823 5.02,7.044 V 61.33 c 0,4.482 3.15,9.938 7.043,12.166 l 25.881,14.938 3.15,8.126 -3.317,14.388 7.306,-4.06 7.158,-10.2 22.41,12.947 0.788,6.717 7.235,-4.034 c 1.505,-0.64 2.465,-2.273 2.465,-4.745 V 51.277 c 0.019,-4.482 -3.131,-9.938 -7.024,-12.179 z"/>
          <path fill="#FFBC59" d="M 410.886,43.158 344.821,5.014 c -3.88,-2.24 -7.043,-0.422 -7.043,4.06 v 56.348 c 0,4.482 3.15,9.938 7.043,12.166 l 25.88,14.939 7.146,18.421 7.152,-10.181 25.881,14.945 c 3.886,2.241 7.043,0.423 7.043,-4.059 V 55.337 c -0.007,-4.482 -3.15,-9.938 -7.037,-12.179 z"/>
          <path fill="#ffffff" d="m 389.391,86.447 c 0.523,-0.415 0.045,-1.341 -2.868,-5.563 -3.153,-4.57 -3.984,-5.376 -4.305,-4.172 -0.1,0.375 0.737,1.81 2.885,4.946 1.664,2.43 3.142,4.519 3.284,4.642 0.324,0.282 0.754,0.345 1.004,0.147 z m 7.746,0.411 c 0.557,-0.443 -0.123,-1.547 -4.663,-7.572 -4.881,-6.478 -5.617,-7.219 -5.946,-5.989 -0.105,0.39 0.98,2.037 4.132,6.277 2.351,3.161 4.574,6.11 4.942,6.551 0.659,0.792 1.159,1.03 1.535,0.733 z m 1.479,-7.37 c 0.109,-0.209 0.174,-0.5 0.142,-0.649 -0.031,-0.148 -1.482,-2.344 -3.223,-4.88 -3.156,-4.595 -3.852,-5.261 -4.187,-4.008 -0.105,0.392 0.713,1.794 2.968,5.086 2.99,4.365 3.868,5.274 4.3,4.451 z m -24.582,-3.457 c 0.629,-2.127 1.53,-5.536 2.443,-6.503 0.114,-0.085 1.223,0.329 2.464,0.92 l 2.256,1.073 2.873,-2.121 c 1.58,-1.167 2.984,-2.4 3.12,-2.74 0.158,-0.396 0.081,-1.42 -0.215,-2.854 -0.254,-1.229 -0.413,-2.335 -0.306,-2.359 5.351,-1.162 6.808,-0.175 7.933,-0.863 0.561,-0.42 0.234,-1.795 -1.023,-4.305 -1.885,-3.767 -5.99,-6.824 -10.518,-9.759 -1.987,-1.287 -2.415,-1.7 -3.327,-3.222 -1.939,-3.23 -4.705,-5.815 -8.269,-7.725 -3.222,-1.727 -5.992,-2.57 -10.965,-3.333 -3.993,-0.614 -4.53,-0.646 -4.966,-0.3 -0.411,0.326 -0.554,0.931 -0.899,3.8 -0.698,5.8 -0.312,10.59 1.202,14.905 1.075,3.067 2.544,5.496 4.601,7.61 1.381,1.42 1.685,1.927 2.363,3.955 2.033,6.077 4.568,10.43 8.456,13.142 1.578,1.1 2.496,1.325 2.777,0.679 z m -3.5,-3.346 c -2.022,-1.838 -2.939,-3.65 -4.497,-6.82 -1.163,-2.368 -1.544,-3.45 -1.285,-3.655 0.1,-0.079 6.886,4.156 9.364,5.844 0.549,0.374 0.596,1.144 0.358,1.939 0,0 -1.659,4.248 -1.99,4.208 -0.178,-0.021 -1.055,-0.704 -1.95,-1.516 z m 6.776,-4.888 c -4.496,-2.344 -11.233,-6.741 -14.025,-9.154 -3.393,-2.933 -5.489,-6.259 -6.526,-10.356 l -0.37,-1.465 6.268,-5.001 c 3.447,-2.75 6.459,-5.08 6.692,-5.175 0.51,-0.21 2.627,0.923 4.541,2.43 3.299,2.596 5.573,6.291 7.976,12.963 2.048,5.688 3.86,12.407 3.7,13.728 -0.075,0.62 -4.022,3.88 -4.611,3.81 -0.167,-0.02 -1.807,-0.822 -3.645,-1.78 z m -6.781,-14.038 c 1.1,-0.334 2.302,-1.506 2.788,-2.72 0.519,-1.3 0.309,-2.82 -0.569,-4.117 -0.809,-1.195 -2.012,-1.801 -3.649,-1.84 -4.161,-0.097 -6.008,5.45 -2.648,7.953 1.083,0.807 2.8,1.112 4.078,0.724 z m -3.031,-1.971 c -0.759,-0.521 -1.338,-1.764 -1.232,-2.64 0.106,-0.878 0.964,-1.946 1.825,-2.272 1.332,-0.503 2.316,-0.231 3.177,0.879 0.626,0.808 0.74,1.181 0.633,2.073 -0.108,0.892 -0.308,1.227 -1.109,1.863 -1.101,0.873 -2.121,0.903 -3.294,0.096 z m 18.66,7.707 c -0.147,-0.124 -0.491,-1.02 -0.764,-1.993 -0.272,-0.971 -1.052,-3.34 -1.732,-5.263 -0.68,-1.923 -1.22,-3.627 -1.201,-3.786 0.049,-0.401 0.577,-0.092 2.764,1.617 2.187,1.71 5.386,4.131 6.698,6.476 1.342,2.398 1.196,2.43 -1.149,2.649 0,0 -3.223,0.453 -3.51,0.463 0,0 -0.838,0.062 -1.106,-0.163 z m -30.23,-16.74 c -0.075,-0.866 -0.013,-3.215 0.139,-5.22 0.243,-3.222 0.33,-3.684 0.747,-3.956 0.85,-0.554 9.741,1.195 10.428,2.05 0.25,0.313 -10.527,9.004 -10.93,8.814 -0.136,-0.064 -0.309,-0.824 -0.384,-1.689 z"/>
        </g>

        <g class="design-anim bouncy-anim">
          <path fill="#FF9800" d="m 403.553,191.935 -66.059,-38.143 c -1.786,-1.031 -3.419,-1.198 -4.661,-0.641 -0.172,0.078 -0.337,0.17 -0.493,0.276 l -6.903,3.822 5.02,7.044 v 49.874 c 0,4.482 3.15,9.938 7.043,12.166 l 25.881,14.939 3.15,8.125 -3.317,14.388 7.306,-4.059 7.159,-10.201 22.41,12.948 0.787,6.717 7.235,-4.034 c 1.505,-0.641 2.466,-2.274 2.466,-4.745 v -56.297 c 0.019,-4.482 -3.131,-9.937 -7.024,-12.179 z"/>
          <path fill="#FFBC59" d="m 396.253,195.996 -66.065,-38.144 c -3.88,-2.241 -7.043,-0.422 -7.043,4.06 v 56.348 c 0,4.482 3.15,9.937 7.043,12.166 l 25.881,14.938 7.145,18.422 7.152,-10.181 25.881,14.945 c 3.886,2.241 7.043,0.423 7.043,-4.06 v -56.315 c -0.007,-4.483 -3.15,-9.938 -7.037,-12.179 z"/>
          <path fill="#ffffff" d="m 364.818,216.244 c -0.916,-1.611 -1.306,-2.742 -1.07,-3.109 0.353,-0.549 1.401,0.263 1.792,1.389 0.454,1.307 1.509,1.928 3.558,2.095 2.147,0.175 2.596,0.468 3.674,2.399 0.608,1.088 1.151,1.678 1.805,1.961 l 1.526,0.657 c 0.997,0.426 0.331,1.308 -0.901,1.193 -1.535,-0.144 -2.488,-0.861 -3.351,-2.522 -0.932,-1.794 -1.377,-2.08 -3.512,-2.254 -1.914,-0.156 -2.856,-0.64 -3.521,-1.809 z m -19.035,4.417 c -0.232,-1.507 1.069,-1.517 3.581,-0.027 2.187,1.297 2.83,2.713 1.454,3.2 -1.256,0.444 -4.825,-1.805 -5.035,-3.173 z m 0,-4.865 c -0.232,-1.507 1.069,-1.517 3.581,-0.027 2.187,1.297 2.83,2.713 1.454,3.2 -1.256,0.444 -4.825,-1.805 -5.035,-3.173 z m 0,-21.888 c -0.232,-1.507 1.069,-1.517 3.581,-0.027 2.187,1.296 2.83,2.713 1.454,3.2 -1.256,0.444 -4.825,-1.805 -5.035,-3.173 z m 0,-4.865 c -0.232,-1.508 1.069,-1.518 3.581,-0.028 2.187,1.297 2.83,2.713 1.454,3.2 -1.256,0.445 -4.825,-1.805 -5.035,-3.172 z m 1.493,11.644 c -1.341,-0.121 -2.286,0.86 -2.292,2.637 -0.008,2.368 1.659,5.256 3.722,6.448 2.062,1.192 3.737,0.235 3.745,-2.135 0.008,-2.37 -1.659,-5.256 -3.721,-6.448 -0.516,-0.298 -1.007,-0.461 -1.454,-0.502 z m 0.67,2.506 c 0.223,0.02 0.467,0.104 0.724,0.252 1.028,0.594 1.859,2.032 1.855,3.213 -0.004,1.181 -0.839,1.656 -1.867,1.062 -1.028,-0.594 -1.858,-2.031 -1.855,-3.211 0.003,-0.885 0.474,-1.377 1.143,-1.316 z m 37.272,-11.254 c -1.55,0.007 -2.564,1.297 -3.626,2.23 -2.004,1.896 -8.837,8.311 -10.788,10.262 l 7.393,-4.806 c 1.4,-1.362 2.77,-2.763 4.274,-4.012 0.825,0.014 1.411,1.1 2.033,1.642 0.499,0.381 0.722,1.065 0.249,1.35 l 2.255,-0.351 c 0.918,-1.056 1.995,-2.416 1.528,-3.901 -0.507,-1.346 -1.802,-2.531 -3.318,-2.414 z m -0.465,6.666 c -1.158,1.105 -7.746,7.9 -9.022,8.868 -1.11,-0.63 -2.08,-1.838 -2.998,-2.713 0.132,-0.198 5.464,-5.135 5.464,-5.135 l -7.393,4.806 c -0.606,2.353 -1.608,4.598 -2.086,6.985 0.318,1.087 1.866,0.159 2.611,0.041 1.786,-0.602 3.651,-1.21 5.002,-2.596 1.648,-1.534 9.062,-9.038 10.677,-10.607 z m 0.38,-5.377 c 1.097,0.012 1.843,0.903 2.149,2.105 0.301,1.173 -1.238,1.922 -1.992,0.935 0,0 -1.819,-1.551 -1.458,-2.319 0.288,-0.413 0.798,-0.653 1.301,-0.721 z m -11.027,14.924 c 0.464,1.012 -1.855,1.595 -1.855,1.595 0,0 -1.705,0.729 -1.5,-0.468 0,0 0.323,-2.08 1.023,-2.83 l 0.147,-0.088 c 0.869,-0.325 1.797,1.067 2.185,1.791 z" />
          <path fill="#ffffff" d="m 359.913,202.025 c -0.242,-0.051 -0.456,-0.135 -0.8,0.064 -0.295,0.17 -0.364,0.379 -0.444,0.589 a 4.265,4.265 0 0 0 -0.195,0.729 c -0.109,0.56 -0.187,1.283 -0.249,2.133 -0.124,1.699 -0.172,3.895 -0.155,6.118 0.017,2.223 0.099,4.47 0.231,6.266 0.065,0.898 0.143,1.682 0.235,2.303 0.091,0.622 0.145,1.032 0.363,1.409 0.12,0.208 0.261,0.335 0.451,0.508 0.191,0.173 0.428,0.367 0.713,0.587 0.569,0.438 1.324,0.972 2.209,1.57 a 138.604,138.604 0 0 0 6.36,4.011 c 2.305,1.374 4.627,2.678 6.479,3.594 0.926,0.458 1.731,0.818 2.377,1.047 0.323,0.115 0.604,0.198 0.862,0.24 0.259,0.043 0.506,0.087 0.817,-0.092 0.282,-0.163 0.374,-0.377 0.464,-0.594 0.089,-0.218 0.155,-0.463 0.213,-0.751 0.117,-0.574 0.198,-1.312 0.259,-2.173 0.122,-1.723 0.153,-3.935 0.119,-6.166 -0.034,-2.23 -0.133,-4.475 -0.271,-6.254 a 36.335,36.335 0 0 0 -0.232,-2.263 c -0.087,-0.603 -0.12,-0.972 -0.338,-1.349 -0.122,-0.213 -0.262,-0.336 -0.453,-0.506 -0.192,-0.17 -0.433,-0.361 -0.72,-0.577 -0.574,-0.432 -3.496,-2.299 -3.496,-2.299 l -1.197,0.617 c 0,0 2.762,1.675 4.014,2.584 0.271,0.205 0.493,0.383 0.648,0.521 0.155,0.137 0.247,0.262 0.226,0.225 -0.031,-0.054 0.116,0.383 0.197,0.945 0.081,0.563 0.158,1.317 0.225,2.19 0.135,1.747 0.233,3.974 0.266,6.183 0.034,2.209 0.005,4.401 -0.114,6.068 -0.059,0.834 -0.14,1.539 -0.239,2.029 -0.05,0.244 -0.107,0.435 -0.152,0.546 -0.046,0.111 -0.102,0.116 0.016,0.047 0.136,-0.078 0.083,-0.02 -0.066,-0.045 a 4.233,4.233 0 0 1 -0.67,-0.19 c -0.57,-0.202 -1.351,-0.55 -2.254,-0.997 -1.806,-0.894 -4.114,-2.188 -6.403,-3.551 a 138.194,138.194 0 0 1 -6.306,-3.976 44.34,44.34 0 0 1 -2.151,-1.53 c -0.27,-0.207 -0.49,-0.387 -0.644,-0.527 -0.154,-0.14 -0.247,-0.266 -0.23,-0.237 0.001,0.002 -0.141,-0.433 -0.226,-1.01 a 32.394,32.394 0 0 1 -0.226,-2.221 100.55,100.55 0 0 1 -0.225,-6.191 c -0.017,-2.202 0.029,-4.377 0.149,-6.026 0.06,-0.825 0.14,-1.521 0.233,-2.002 0.042,-0.216 0.087,-0.369 0.126,-0.48 0.144,0.032 0.355,0.095 0.622,0.197 0.56,0.214 1.333,0.569 2.233,1.021 1.8,0.905 4.64,2.508 6.947,3.865 0.054,0.408 0.361,-1.072 0.361,-1.072 0,0 -4.745,-2.759 -6.8,-3.8 -0.919,-0.462 -1.713,-0.83 -2.337,-1.069 a 5.61,5.61 0 0 0 -0.822,-0.258 z"/>
          <path fill="#ffffff" d="m 340.108,177.064 -0.017,46.082 47.335,27.335 v -2.244 l 0.016,-43.847 -4.151,-2.302 -1.784,1.869 3.342,1.929 -0.015,40.106 -42.149,-24.342 0.014,-40.097 21.076,12.168 11.298,6.557 1.949,-1.838 -13.247,-7.712 z"/>
        </g>
      </g>
    </g>
  </g>
</svg>
