<svg width="286" height="307" viewBox="0 0 286 307" fill="none" xmlns="http://www.w3.org/2000/svg">
<g clip-path="url(#clip0_1393_3)">
<path d="M34.655 305.88C25.7792 305.65 23.7892 305.415 20.138 304.171C11.955 301.383 5.19719 295.311 1.71568 287.619C-0.288628 283.19 -0.459377 281.881 -0.81509 268.219C-1.19594 253.592 -0.943925 185.746 -0.463791 173.645C1.52242 123.583 8.31962 91.6253 22.2929 66.6526C35.3259 43.3602 53.9487 23.3969 77.066 7.9368C82.9339 4.01253 86.4092 2.07096 89.7781 0.834904C91.8864 0.0613693 92.4504 -0.0075875 96.6014 0.000576465C105.482 0.0180441 111.206 2.41152 116.911 8.49218C122.346 14.2863 125.355 23.0688 124.416 30.4009C123.365 38.614 119.608 44.1779 110.333 51.2569C90.9399 66.058 78.9964 83.867 71.8238 108.677C67.66 123.08 64.3098 145.891 64.073 161.452L63.9898 166.923L69.7631 166.996C84.8416 167.188 103.781 167.734 105.183 168.018C109.396 168.87 114.507 171.726 118.431 175.421C122.299 179.063 124.721 182.762 127.301 188.964L128.146 190.996L128.046 236.017L127.945 281.038L127.256 283.215C125.587 288.485 122.763 293.113 118.759 297.143C115.642 300.279 112.233 302.508 108.677 303.736C103.903 305.383 102.144 305.601 91.1401 305.901C79.4448 306.22 47.2701 306.208 34.6549 305.88L34.655 305.88ZM200.21 305.896C190.954 305.759 182.5 305.494 181.24 305.301C174.785 304.315 166.929 299.396 162.604 293.633C160.793 291.219 158.628 286.771 157.766 283.695C156.663 279.759 156.51 269.302 156.84 220.321C157.215 164.635 157.501 154.283 159.044 140.348C162.211 111.748 168.102 89.0232 176.793 71.8796C184.491 56.6942 194.479 43.0354 207.212 30.2797C216.415 21.0614 224.49 14.4542 235.368 7.24201C245.033 0.834493 247.03 0.0669357 254.042 0.0654114C257.818 0.0645898 259.206 0.192384 261.22 0.726478C271.106 3.34825 278.385 10.9352 280.934 21.2743C281.675 24.2814 281.675 31.4277 280.934 34.2061C279.258 40.4845 276.419 44.1197 267.797 51.025C259.963 57.2993 250.304 66.9685 245.405 73.4428C243.148 76.424 240.072 81.5905 237.559 86.6174C229.348 103.047 224.172 123.772 221.917 149.259C221.367 155.474 220.682 166.749 220.846 166.904C220.91 166.966 230.366 167.12 241.859 167.247L262.755 167.477L266.981 169.612C271.755 172.023 274.474 173.96 277.236 176.917C280.975 180.922 283.319 185.202 284.67 190.49C285.371 193.235 285.463 194.413 285.722 203.971C286.093 217.601 286.093 253.492 285.722 268.219C285.45 279.058 285.381 279.984 284.637 282.913C283.052 289.148 279.308 294.943 274.194 299.076C269.709 302.701 264.417 304.864 258.255 305.591C254.625 306.019 220.563 306.198 200.21 305.896Z" fill="#FFF2DE"/>
</g>
<defs>
<clipPath id="clip0_1393_3">
<rect width="287" height="306.133" fill="white" transform="translate(-1)"/>
</clipPath>
</defs>
</svg>
