<svg width="59" height="59" viewBox="0 0 59 59" fill="none" xmlns="http://www.w3.org/2000/svg">
<circle cx="29.5" cy="29.5" r="29.5" fill="#FF9800"/>
<path d="M30.2763 25.1007C28.2837 25.1007 26.6535 26.731 26.6535 28.7235C26.6535 30.7161 28.2837 32.3463 30.2763 32.3463C32.2688 32.3463 33.8991 30.7161 33.8991 28.7235C33.8991 26.731 32.2688 25.1007 30.2763 25.1007ZM42.9561 12.4209H17.5964C15.5858 12.4209 13.9736 14.0512 13.9736 16.0437V41.4034C13.9736 43.3959 15.5858 45.0262 17.5964 45.0262H42.9561C44.9667 45.0262 46.5789 43.3959 46.5789 41.4034V16.0437C46.5789 14.0512 44.9667 12.4209 42.9561 12.4209ZM39.7861 28.7235C39.7861 29.1402 39.7499 29.5568 39.6956 29.9553L42.3764 32.0565C42.6119 32.2558 42.6844 32.5999 42.5214 32.8716L39.9854 37.2552C39.8224 37.5269 39.4963 37.6356 39.2065 37.527L36.0546 36.259C35.4025 36.7662 34.678 37.1828 33.9172 37.5088L33.4462 40.8599C33.3919 41.1679 33.1202 41.4034 32.8122 41.4034H27.7403C27.4324 41.4034 27.1607 41.1679 27.1063 40.878L26.6353 37.527C25.8564 37.2009 25.15 36.7843 24.4979 36.2771L21.346 37.5451C21.0562 37.6538 20.7302 37.5451 20.5671 37.2734L18.0312 32.8898C17.8681 32.618 17.9406 32.2739 18.1761 32.0746L20.857 29.9734C20.8026 29.5568 20.7664 29.1402 20.7664 28.7235C20.7664 28.3069 20.8026 27.8903 20.857 27.4918L18.1761 25.3905C17.9406 25.1913 17.8681 24.8471 18.0312 24.5754L20.5671 20.1918C20.7302 19.9201 21.0562 19.8114 21.346 19.9201L24.4979 21.1881C25.15 20.6809 25.8746 20.2643 26.6353 19.9382L27.1063 16.5871C27.1607 16.2792 27.4324 16.0437 27.7403 16.0437H32.8122C33.1202 16.0437 33.3919 16.2792 33.4462 16.569L33.9172 19.9201C34.6961 20.2462 35.4025 20.6628 36.0546 21.17L39.2065 19.902C39.4963 19.7933 39.8224 19.902 39.9854 20.1737L42.5214 24.5573C42.6844 24.829 42.6119 25.1732 42.3764 25.3724L39.6956 27.4737C39.7499 27.8903 39.7861 28.3069 39.7861 28.7235Z" fill="white"/>
</svg>
